<?xml version="1.0" standalone="no"?>
<!DOCTYPE svg PUBLIC "-//W3C//DTD SVG 20010904//EN"
 "http://www.w3.org/TR/2001/REC-SVG-20010904/DTD/svg10.dtd">
<svg version="1.0" xmlns="http://www.w3.org/2000/svg"
 width="600.000000pt" height="600.000000pt" viewBox="0 0 600.000000 600.000000"
 preserveAspectRatio="xMidYMid meet">

<g transform="translate(0.000000,600.000000) scale(0.100000,-0.100000)"
fill="#000000" stroke="none">
<path d="M832 3950 c-65 -40 -63 -3 -62 -943 1 -539 5 -866 11 -890 20 -77
128 -104 191 -48 l33 29 5 399 5 398 315 2 c173 1 328 3 343 3 19 0 41 12 63
34 27 27 34 42 34 75 0 51 -16 86 -49 108 -23 16 -63 19 -366 23 l-340 5 -3
293 -2 292 380 0 c403 0 423 2 463 48 27 29 33 92 13 130 -32 63 -28 62 -538
62 -447 0 -464 -1 -496 -20z"/>
<path d="M3113 3950 c20 -11 37 -25 37 -31 0 -22 -22 -50 -46 -59 -13 -5 -29
-21 -34 -35 -7 -19 -17 -25 -39 -25 -21 0 -42 -12 -75 -45 -26 -25 -51 -45
-57 -45 -14 0 -49 61 -49 86 0 11 9 29 20 39 12 11 20 28 18 39 -3 18 -9 20
-58 17 -30 -1 -57 -5 -59 -7 -2 -2 1 -16 8 -31 11 -24 9 -29 -13 -52 l-25 -25
-25 23 c-15 15 -31 21 -41 17 -15 -5 -13 -11 12 -40 15 -19 36 -36 46 -39 10
-3 17 -15 17 -31 0 -15 5 -35 12 -46 18 -29 -12 -57 -72 -65 -43 -6 -49 -10
-52 -32 -2 -22 -12 -29 -56 -44 -88 -30 -182 -113 -182 -162 0 -63 -32 -75
-43 -17 -6 27 -10 30 -47 30 -54 0 -87 -24 -100 -70 -16 -59 9 -93 40 -55 14
16 36 20 44 7 3 -5 -2 -21 -10 -36 -18 -36 -18 -34 9 -38 18 -2 23 -10 25 -40
4 -43 13 -46 69 -23 49 21 74 19 80 -5 4 -14 11 -19 24 -15 45 15 187 -93 175
-132 -6 -19 16 -34 132 -84 81 -35 92 -71 42 -134 -24 -30 -30 -48 -30 -84 0
-56 -15 -80 -61 -95 -26 -9 -35 -18 -42 -46 -21 -83 -39 -120 -61 -126 -21 -5
-23 -11 -21 -65 1 -45 7 -64 23 -82 29 -30 28 -37 -5 -37 -71 0 -150 155 -183
359 -15 92 -24 119 -44 140 -13 14 -41 53 -60 85 -40 66 -48 136 -21 172 8 10
15 36 15 57 0 34 -3 38 -31 44 -22 4 -35 15 -47 41 -10 21 -39 51 -72 73 -60
41 -66 55 -70 154 -3 96 -12 107 -38 47 -40 -93 -54 -164 -59 -298 -9 -244 53
-434 204 -625 114 -142 317 -273 498 -320 115 -30 324 -37 435 -15 174 36 310
99 443 206 100 80 173 175 237 305 70 141 91 241 88 402 l-3 128 -62 31 c-51
26 -61 28 -52 13 5 -10 18 -23 29 -29 54 -29 44 -83 -25 -132 -45 -32 -58 -58
-29 -58 8 0 24 5 35 10 46 25 7 -77 -58 -152 -58 -67 -60 -73 -66 -161 -3 -53
-7 -61 -40 -88 -21 -17 -37 -39 -37 -49 0 -19 -45 -79 -111 -150 -36 -39 -83
-60 -99 -44 -12 12 -30 133 -30 201 0 29 9 75 20 103 24 61 25 91 4 132 -11
22 -14 45 -10 75 5 41 4 43 -19 43 -14 0 -30 9 -37 20 -13 21 -52 27 -63 10
-3 -5 -17 -10 -30 -10 -13 0 -36 -5 -50 -12 -23 -10 -29 -8 -66 28 -58 56 -72
87 -63 137 5 23 7 58 5 79 -3 43 18 88 56 118 39 31 78 101 61 112 -7 4 -17 8
-21 8 -5 0 -6 21 -3 48 2 26 5 51 5 56 1 4 17 5 36 2 27 -5 35 -4 35 8 0 8 -5
18 -10 21 -6 3 -8 16 -4 29 4 17 -1 25 -21 34 -20 9 -25 17 -20 30 5 9 10 29
13 45 8 51 44 45 68 -11 l15 -36 26 27 c25 24 26 28 11 44 -34 39 -31 58 16
101 25 23 57 44 73 48 15 3 33 7 38 9 17 5 -125 66 -199 85 -39 10 -96 21
-126 24 l-55 7 38 -21z m55 -172 c18 -18 14 -35 -9 -41 -28 -7 -69 9 -69 27 0
25 57 35 78 14z m-746 -518 c22 -16 49 -30 58 -30 20 0 45 -26 33 -33 -4 -2
-24 -7 -43 -10 -31 -6 -40 -1 -82 37 -35 32 -44 46 -35 55 16 16 23 14 69 -19z
m1388 -584 c0 -14 -44 -104 -74 -151 -38 -58 -56 -69 -56 -33 0 35 33 128 45
128 6 0 24 14 40 30 26 27 45 38 45 26z"/>
<path d="M4152 3956 c-55 -30 -77 -107 -47 -165 28 -56 62 -61 400 -61 168 0
305 -3 305 -8 0 -4 -70 -92 -155 -195 -85 -104 -167 -204 -181 -223 -49 -64
-40 -164 18 -195 12 -6 58 -16 102 -21 156 -17 276 -100 343 -236 36 -73 38
-80 38 -177 0 -97 -2 -104 -38 -177 -47 -95 -130 -176 -214 -209 -191 -74
-419 7 -508 181 -31 61 -65 91 -112 97 -51 6 -89 -10 -113 -49 -28 -46 -25
-85 12 -159 41 -82 169 -212 253 -256 177 -92 363 -103 545 -32 183 70 317
210 384 399 27 77 30 96 30 205 0 103 -4 132 -27 201 -58 174 -194 321 -362
391 -25 10 -45 23 -45 28 0 13 31 51 231 285 91 107 171 205 177 217 16 30 15
78 -3 113 -31 60 -28 60 -542 60 -361 -1 -473 -4 -491 -14z"/>
<path d="M2548 3799 c-45 -23 -47 -39 -12 -74 l27 -27 43 49 c47 52 51 60 32
60 -7 0 -22 3 -33 6 -11 3 -36 -3 -57 -14z"/>
<path d="M3442 3728 c-16 -16 -15 -40 2 -64 14 -18 16 -18 32 -2 14 14 16 21
6 30 -7 7 -12 20 -12 30 0 21 -11 23 -28 6z"/>
<path d="M3334 3484 c-43 -15 -74 -46 -74 -75 0 -28 25 -34 69 -17 51 20 83 8
79 -29 -2 -21 2 -28 17 -31 11 -2 32 -15 47 -30 l27 -25 10 26 c12 32 11 31
57 12 32 -13 39 -13 65 0 36 19 37 33 4 41 -14 4 -33 20 -41 36 -17 32 -30 28
-36 -11 -3 -23 -4 -22 -30 14 -25 36 -27 36 -37 16 -16 -29 -41 -27 -41 3 0
28 -32 72 -58 78 -11 3 -37 -1 -58 -8z"/>
<path d="M3666 3174 c9 -22 21 -54 27 -72 6 -18 20 -38 30 -44 18 -9 19 -8 13
18 -10 39 -60 127 -75 132 -8 3 -7 -8 5 -34z"/>
</g>
</svg>
